<svg xmlns="http://www.w3.org/2000/svg" version="1.1" xmlns:xlink="http://www.w3.org/1999/xlink" xmlns:svgjs="http://svgjs.dev/svgjs" width="2000" height="1247" viewBox="0 0 2000 1247"><g transform="matrix(1,0,0,1,-1.2121212121212466,0.504858299595071)"><svg viewBox="0 0 396 247" data-background-color="#293040" preserveAspectRatio="xMidYMid meet" height="1247" width="2000" xmlns="http://www.w3.org/2000/svg" xmlns:xlink="http://www.w3.org/1999/xlink"><g id="tight-bounds" transform="matrix(1,0,0,1,0.2400000000000091,-0.09999999999999432)"><svg viewBox="0 0 395.52 247.2" height="247.2" width="395.52"><g><svg></svg></g><g><svg viewBox="0 0 395.52 247.2" height="247.2" width="395.52"><g transform="matrix(1,0,0,1,75.54432,62.342563634086744)"><svg viewBox="0 0 244.43135999999998 122.5148727318265" height="122.5148727318265" width="244.43135999999998"><g><svg viewBox="0 0 244.43135999999998 122.5148727318265" height="122.5148727318265" width="244.43135999999998"><g><svg viewBox="0 0 244.43135999999998 122.5148727318265" height="122.5148727318265" width="244.43135999999998"><g><svg viewBox="0 0 244.43135999999998 122.5148727318265" height="122.5148727318265" width="244.43135999999998"><g id="textblocktransform"><svg viewBox="0 0 244.43135999999998 122.5148727318265" height="122.5148727318265" width="244.43135999999998" id="textblock"><g><svg viewBox="0 0 244.43135999999998 82.65207598209845" height="82.65207598209845" width="244.43135999999998"><g transform="matrix(1,0,0,1,0,0)"><svg width="244.43135999999998" viewBox="-1.5 -33.5 100.55 34" height="82.65207598209845" data-palette-color="#d5b263"><path d="M14.25 0L-1.5 0-1.35-0.8 2.8-2.8 7.6-30.2 4.15-32.2 4.3-33 18.75-33Q24.25-33 28.08-31.23 31.9-29.45 33.88-26.25 35.85-23.05 35.85-18.75L35.85-18.75Q35.85-14.7 34.18-11.3 32.5-7.9 29.53-5.35 26.55-2.8 22.63-1.4 18.7 0 14.25 0L14.25 0ZM17.4-30.35L17.4-30.35 16.25-30.35 11.3-2.4 14.9-2.4Q18.2-2.4 20.98-4.55 23.75-6.7 25.4-10.5 27.05-14.3 27.05-19.35L27.05-19.35Q27.05-24.45 24.45-27.4 21.85-30.35 17.4-30.35ZM49.1 0.5L49.1 0.5Q46 0.5 43.65-0.23 41.3-0.95 39.35-2.2L39.35-2.2 40.25-10.85 41.15-10.85 44.2-3.8Q44.9-3.25 46.05-2.7 47.2-2.15 48.9-2.15L48.9-2.15Q51.55-2.15 53.45-3.53 55.35-4.9 55.35-7.2L55.35-7.2Q55.35-8.7 54.72-9.7 54.1-10.7 52.57-11.8 51.05-12.9 48.35-14.6L48.35-14.6Q46.45-15.8 45.3-16.9 44.15-18 43.6-19.35 43.05-20.7 43.05-22.65L43.05-22.65Q43.05-25.65 44.8-28.13 46.55-30.6 49.55-32.05 52.55-33.5 56.4-33.5L56.4-33.5Q58.8-33.5 60.97-32.85 63.15-32.2 64.75-31.1L64.75-31.1 63.95-23.1 63.05-23.1 60.05-29.25Q59.35-29.9 58.45-30.35 57.55-30.8 56.15-30.8L56.15-30.8Q53.9-30.8 52.4-29.4 50.9-28 50.9-26.05L50.9-26.05Q50.9-24.9 51.32-23.98 51.75-23.05 52.85-22.08 53.95-21.1 56.1-19.75L56.1-19.75Q58.4-18.3 59.95-17.1 61.5-15.9 62.27-14.4 63.05-12.9 63.05-10.75L63.05-10.75Q63.05-7.75 61.27-5.18 59.5-2.6 56.37-1.05 53.25 0.5 49.1 0.5ZM73.95 0L64.25 0 64.4-0.8 67.25-2.35 84.7-33.25 89.84-33.25 96.2-2.5 99.05-0.8 98.9 0 82.7 0 82.84-0.8 87.05-2.65 85.55-10.35 75-10.35 70.59-2.5 74.15-0.8 73.95 0ZM82.75-24.3L76.55-13.1 85-13.1 82.75-24.3Z" opacity="1" transform="matrix(1,0,0,1,0,0)" fill="#d5b263" class="wordmark-text-0" data-fill-palette-color="primary" id="text-0"></path></svg></g></svg></g><g transform="matrix(1,0,0,1,0,102.16424747164832)"><svg viewBox="0 0 244.43135999999998 20.350625260178166" height="20.350625260178166" width="244.43135999999998"><g transform="matrix(1,0,0,1,0,0)"><svg width="244.43135999999998" viewBox="1.75 -37.5 600.49 50" height="20.350625260178166" data-palette-color="#d5b263"><path d="M1.75 0L10.55 0Q15.85 0 19.53-1.63 23.2-3.25 25.5-5.8L25.5-5.8Q27.8-8.3 28.83-11.4 29.85-14.5 29.85-17.45L29.85-17.45Q29.85-21.5 28.45-24.73 27.05-27.95 24.65-30.25L24.65-30.25Q22.25-32.55 19.05-33.77 15.85-35 12.25-35L12.25-35 1.75-35 1.75-31.05 4.1-31.05 4.1-4 1.75-4 1.75 0ZM8.25-4L8.25-31.05 11.75-31.05Q14.7-31.05 17.25-30.1 19.8-29.15 21.7-27.4L21.7-27.4Q23.55-25.6 24.63-23.1 25.7-20.6 25.7-17.5L25.7-17.5Q25.7-14.4 24.63-11.93 23.55-9.45 21.7-7.7L21.7-7.7Q19.8-5.9 17.25-4.95 14.7-4 11.75-4L11.75-4 8.25-4ZM49.75 0L57.2 0 57.2-3.95 53.4-3.95 53.4-18.75 49.95-18.75Q49.95-18.15 49.87-17.53 49.8-16.9 49.75-16.4L49.75-16.4Q49.35-17.25 47.75-18.23 46.15-19.2 43.4-19.2L43.4-19.2Q41.3-19.2 39.45-18.4 37.6-17.6 36.25-16.25L36.25-16.25Q34.9-14.9 34.12-13.1 33.35-11.3 33.35-9.35L33.35-9.35Q33.35-7.35 34.12-5.58 34.9-3.8 36.25-2.45L36.25-2.45Q37.6-1.1 39.45-0.33 41.3 0.45 43.4 0.45L43.4 0.45Q44.85 0.45 46 0.13 47.15-0.2 48-0.65L48-0.65Q48.8-1.05 49.25-1.45 49.7-1.85 49.75-2L49.75-2Q49.75-1.65 49.75-1.5 49.75-1.35 49.75-1L49.75-1 49.75 0ZM43.4-15.15L43.4-15.15Q44.65-15.15 45.67-14.75 46.7-14.35 47.5-13.65L47.5-13.65Q48.3-12.9 48.77-11.8 49.25-10.7 49.25-9.4L49.25-9.4Q49.25-8.1 48.77-7 48.3-5.9 47.45-5.1L47.45-5.1Q46.7-4.4 45.67-4 44.65-3.6 43.4-3.6L43.4-3.6Q42.3-3.6 41.35-3.93 40.4-4.25 39.7-4.8L39.7-4.8Q38.7-5.6 38.12-6.8 37.55-8 37.55-9.4L37.55-9.4Q37.55-10.6 37.92-11.6 38.3-12.6 39-13.35L39-13.35Q39.75-14.2 40.9-14.68 42.05-15.15 43.4-15.15ZM64.9 0L72.8 0 72.8-3.95 69.05-3.95 69.05-14.7 73.95-14.7 73.95-18.75 69.05-18.75 69.05-30.95 64.9-30.95 64.9-18.75 60.7-18.75 60.7-14.7 64.9-14.7 64.9 0ZM93.84 0L101.29 0 101.29-3.95 97.49-3.95 97.49-18.75 94.04-18.75Q94.04-18.15 93.97-17.53 93.89-16.9 93.84-16.4L93.84-16.4Q93.44-17.25 91.84-18.23 90.24-19.2 87.49-19.2L87.49-19.2Q85.39-19.2 83.54-18.4 81.69-17.6 80.34-16.25L80.34-16.25Q78.99-14.9 78.22-13.1 77.44-11.3 77.44-9.35L77.44-9.35Q77.44-7.35 78.22-5.58 78.99-3.8 80.34-2.45L80.34-2.45Q81.69-1.1 83.54-0.33 85.39 0.45 87.49 0.45L87.49 0.45Q88.94 0.45 90.09 0.13 91.24-0.2 92.09-0.65L92.09-0.65Q92.89-1.05 93.34-1.45 93.79-1.85 93.84-2L93.84-2Q93.84-1.65 93.84-1.5 93.84-1.35 93.84-1L93.84-1 93.84 0ZM87.49-15.15L87.49-15.15Q88.74-15.15 89.77-14.75 90.79-14.35 91.59-13.65L91.59-13.65Q92.39-12.9 92.87-11.8 93.34-10.7 93.34-9.4L93.34-9.4Q93.34-8.1 92.87-7 92.39-5.9 91.54-5.1L91.54-5.1Q90.79-4.4 89.77-4 88.74-3.6 87.49-3.6L87.49-3.6Q86.39-3.6 85.44-3.93 84.49-4.25 83.79-4.8L83.79-4.8Q82.79-5.6 82.22-6.8 81.64-8 81.64-9.4L81.64-9.4Q81.64-10.6 82.02-11.6 82.39-12.6 83.09-13.35L83.09-13.35Q83.84-14.2 84.99-14.68 86.14-15.15 87.49-15.15ZM137.94-2.2L137.94-2.2Q139.34-3.5 140.16-5.3 140.99-7.1 140.99-9.35L140.99-9.35Q140.99-13 139.69-15.1 138.39-17.2 136.29-18.2L136.29-18.2Q133.99-19.3 131.49-20.03 128.99-20.75 127.19-21.7L127.19-21.7Q126.04-22.35 125.34-23.28 124.64-24.2 124.64-25.7L124.64-25.7Q124.64-26.8 124.96-27.78 125.29-28.75 125.94-29.5L125.94-29.5Q126.64-30.3 127.74-30.78 128.84-31.25 130.34-31.25L130.34-31.25Q131.84-31.25 133.09-30.95 134.34-30.65 135.29-30.25L135.29-30.25 135.29-27.3 139.24-27.3 139.24-32.2Q138.04-33.2 136.81-33.8 135.59-34.4 134.44-34.7L134.44-34.7Q133.29-35 132.24-35.1 131.19-35.2 130.29-35.2L130.29-35.2Q127.54-35.2 125.64-34.35 123.74-33.5 122.59-32.15L122.59-32.15Q121.44-30.8 120.94-29.15 120.44-27.5 120.49-25.85L120.49-25.85Q120.54-22.75 121.76-21.05 122.99-19.35 124.84-18.4L124.84-18.4Q126.64-17.45 128.74-16.9 130.84-16.35 132.64-15.6L132.64-15.6Q133.79-15.05 134.66-14.43 135.54-13.8 136.19-12.75L136.19-12.75Q136.59-12.1 136.71-11.2 136.84-10.3 136.84-9.4L136.84-9.4Q136.84-7.95 136.29-6.85 135.74-5.75 134.84-5L134.84-5Q133.89-4.3 132.69-3.93 131.49-3.55 130.19-3.55L130.19-3.55Q127.94-3.55 126.14-4.28 124.34-5 123.04-6L123.04-6 123.04-10.45 119.09-10.45 119.09-4.65Q119.74-3.65 120.91-2.75 122.09-1.85 123.59-1.15L123.59-1.15Q125.09-0.45 126.89-0.03 128.69 0.4 130.59 0.4L130.59 0.4Q132.69 0.4 134.59-0.28 136.49-0.95 137.94-2.2ZM147.89 0L155.79 0 155.79-3.95 152.04-3.95 152.04-14.7 156.94-14.7 156.94-18.75 152.04-18.75 152.04-30.95 147.89-30.95 147.89-18.75 143.69-18.75 143.69-14.7 147.89-14.7 147.89 0ZM160.43 0L171.53 0 171.53-3.95 168.38-3.95 168.38-9.1Q168.38-10.65 169.06-11.9 169.73-13.15 170.93-13.95L170.93-13.95Q171.73-14.5 172.81-14.8 173.88-15.1 175.13-15.1L175.13-15.1 175.43-19.2Q174.68-19.2 173.71-18.85 172.73-18.5 171.68-17.8L171.68-17.8Q170.68-17.15 169.76-16.18 168.83-15.2 168.23-13.95L168.23-13.95Q168.13-15.15 168.16-15.05 168.18-14.95 168.08-16.15L168.08-16.15 167.88-18.75 160.93-18.75 160.93-14.8 164.23-14.8 164.23-3.95 160.43-3.95 160.43 0ZM196.83-4.8L196.83-4.8 196.68-2.55 196.68 0 203.93 0 203.93-3.5 200.83-3.5 200.83-18.75 193.38-18.75 193.38-14.8 196.68-14.8 196.68-9.65Q196.68-8.35 196.13-7.25 195.58-6.15 194.68-5.35L194.68-5.35Q193.78-4.55 192.61-4.1 191.43-3.65 190.13-3.65L190.13-3.65Q188.23-3.75 187.36-4.73 186.48-5.7 186.38-7.05L186.38-7.05 186.38-18.75 178.93-18.75 178.93-14.8 182.23-14.8 182.23-5.15Q182.33-2.65 184.03-1.1 185.73 0.45 188.68 0.45L188.68 0.45Q191.38 0.45 193.61-0.98 195.83-2.4 196.83-4.8ZM223.68-1.7L223.68-1.7 221.18-4.85Q220.38-4.2 219.45-3.9 218.53-3.6 217.43-3.6L217.43-3.6Q216.18-3.6 215.13-4.03 214.08-4.45 213.28-5.15L213.28-5.15Q212.48-5.95 212.03-7.05 211.58-8.15 211.58-9.4L211.58-9.4Q211.58-10.75 212.05-11.85 212.53-12.95 213.43-13.75L213.43-13.75Q214.18-14.4 215.2-14.78 216.23-15.15 217.43-15.15L217.43-15.15Q218.13-15.15 218.8-15.03 219.48-14.9 220.08-14.6L220.08-14.6 220.08-11.25 223.78-11.25 223.78-17.05Q222.48-18.05 220.88-18.63 219.28-19.2 217.43-19.2L217.43-19.2Q215.33-19.2 213.5-18.43 211.68-17.65 210.33-16.3L210.33-16.3Q208.98-15 208.2-13.2 207.43-11.4 207.43-9.4L207.43-9.4Q207.43-7.35 208.2-5.58 208.98-3.8 210.33-2.45L210.33-2.45Q211.68-1.1 213.5-0.33 215.33 0.45 217.43 0.45L217.43 0.45Q219.23 0.45 220.8-0.13 222.38-0.7 223.68-1.7ZM231.48 0L239.38 0 239.38-3.95 235.63-3.95 235.63-14.7 240.53-14.7 240.53-18.75 235.63-18.75 235.63-30.95 231.48-30.95 231.48-18.75 227.28-18.75 227.28-14.7 231.48-14.7 231.48 0ZM261.92-4.8L261.92-4.8 261.77-2.55 261.77 0 269.02 0 269.02-3.5 265.92-3.5 265.92-18.75 258.47-18.75 258.47-14.8 261.77-14.8 261.77-9.65Q261.77-8.35 261.22-7.25 260.67-6.15 259.77-5.35L259.77-5.35Q258.87-4.55 257.7-4.1 256.52-3.65 255.22-3.65L255.22-3.65Q253.32-3.75 252.45-4.73 251.57-5.7 251.47-7.05L251.47-7.05 251.47-18.75 244.02-18.75 244.02-14.8 247.32-14.8 247.32-5.15Q247.42-2.65 249.12-1.1 250.82 0.45 253.77 0.45L253.77 0.45Q256.47 0.45 258.7-0.98 260.92-2.4 261.92-4.8ZM272.52 0L283.62 0 283.62-3.95 280.47-3.95 280.47-9.1Q280.47-10.65 281.15-11.9 281.82-13.15 283.02-13.95L283.02-13.95Q283.82-14.5 284.9-14.8 285.97-15.1 287.22-15.1L287.22-15.1 287.52-19.2Q286.77-19.2 285.8-18.85 284.82-18.5 283.77-17.8L283.77-17.8Q282.77-17.15 281.85-16.18 280.92-15.2 280.32-13.95L280.32-13.95Q280.22-15.15 280.25-15.05 280.27-14.95 280.17-16.15L280.17-16.15 279.97-18.75 273.02-18.75 273.02-14.8 276.32-14.8 276.32-3.95 272.52-3.95 272.52 0ZM301.02-15.15L301.02-15.15Q302.07-15.15 302.94-14.63 303.82-14.1 304.52-13.25L304.52-13.25Q302.17-12.4 299.84-11.53 297.52-10.65 295.17-9.8L295.17-9.8Q295.22-10.85 295.59-11.75 295.97-12.65 296.57-13.35L296.57-13.35Q297.37-14.2 298.49-14.68 299.62-15.15 301.02-15.15ZM307.37-2.2L307.37-2.2 304.82-5.2Q304.07-4.4 303.12-4 302.17-3.6 301.02-3.6L301.02-3.6Q299.47-3.6 298.24-4.23 297.02-4.85 296.27-5.9L296.27-5.9Q299.67-7.15 303.04-8.4 306.42-9.65 309.82-10.9L309.82-10.9Q309.37-12.7 308.52-14.23 307.67-15.75 306.57-16.85L306.57-16.85Q305.42-17.95 303.99-18.57 302.57-19.2 301.02-19.2L301.02-19.2Q298.92-19.2 297.09-18.43 295.27-17.65 293.92-16.35L293.92-16.35Q292.57-15 291.79-13.2 291.02-11.4 291.02-9.4L291.02-9.4Q291.02-7.35 291.79-5.58 292.57-3.8 293.92-2.45L293.92-2.45Q295.27-1.1 297.09-0.33 298.92 0.45 301.02 0.45L301.02 0.45Q302.92 0.45 304.52-0.25 306.12-0.95 307.37-2.2ZM342.01 0.45L342.01 0.45Q344.41 0.45 346.41-0.53 348.41-1.5 349.81-3.15L349.81-3.15 352.31 0.95 355.56-1.2 351.81-7.25Q351.91-7.8 351.99-8.4 352.06-9 352.06-9.6L352.06-9.6Q352.06-9.9 352.06-10.18 352.06-10.45 352.06-10.7L352.06-10.7 352.06-14.7 356.81-14.7 356.81-18.75 347.86-18.75 347.86-15.55Q347.86-15.15 347.86-14.65 347.86-14.15 347.86-13.65L347.86-13.65 340.41-25.75Q339.91-26.55 339.64-27.38 339.36-28.2 339.36-29.05L339.36-29.05Q339.36-29.65 339.61-30.43 339.86-31.2 340.36-31.9L340.36-31.9Q340.86-32.55 341.61-33 342.36-33.45 343.41-33.45L343.41-33.45Q344.61-33.45 345.84-32.93 347.06-32.4 347.81-32L347.81-32 349.46-35.25Q348.21-36.05 346.51-36.73 344.81-37.4 342.91-37.4L342.91-37.4Q341.01-37.4 339.56-36.68 338.11-35.95 337.11-34.85L337.11-34.85Q336.11-33.7 335.59-32.38 335.06-31.05 335.06-29.8L335.06-29.8Q335.06-28.55 335.46-27.28 335.86-26 336.56-24.8L336.56-24.8 340.06-19Q338.31-18.7 336.86-17.82 335.41-16.95 334.31-15.7L334.31-15.7Q333.21-14.4 332.61-12.8 332.01-11.2 332.01-9.4L332.01-9.4Q332.01-7.35 332.79-5.58 333.56-3.8 334.91-2.45L334.91-2.45Q336.26-1.1 338.09-0.33 339.91 0.45 342.01 0.45ZM342.01-3.6L342.01-3.6Q340.76-3.6 339.69-4.03 338.61-4.45 337.86-5.2L337.86-5.2Q337.06-6 336.61-7.08 336.16-8.15 336.16-9.4L336.16-9.4Q336.16-10.7 336.56-11.73 336.96-12.75 337.71-13.5L337.71-13.5Q338.56-14.3 339.76-14.73 340.96-15.15 342.46-15.15L342.46-15.15 347.41-7.05Q346.76-5.5 345.34-4.55 343.91-3.6 342.01-3.6ZM378.51 0L389.61 0 389.61-3.95 386.76-3.95Q388.16-7.25 388.86-8.9 389.56-10.55 390.96-13.85L390.96-13.85 401.96-13.85Q403.01-11.35 404.03-8.9 405.06-6.45 406.11-3.95L406.11-3.95 403.31-3.95 403.31 0 414.41 0 414.41-3.95 410.31-3.95Q406.86-12.2 403.38-20.28 399.91-28.35 396.46-36.6L396.46-36.6Q393.01-28.35 389.53-20.28 386.06-12.2 382.61-3.95L382.61-3.95 378.51-3.95 378.51 0ZM395.91-25.75L395.91-25.75Q395.96-25.9 396.08-26.25 396.21-26.6 396.41-27.4L396.41-27.4 396.91-25.75 400.26-17.8 392.66-17.8Q393.36-19.55 394.18-21.68 395.01-23.8 395.91-25.75ZM417.91 0L429.01 0 429.01-3.95 425.86-3.95 425.86-37.5 418.41-37.5 418.41-33.55 421.71-33.55 421.71-3.95 417.91-3.95 417.91 0ZM437.4 6.1L434.65 9.5Q436.15 10.55 438.25 11.53 440.35 12.5 442.6 12.5L442.6 12.5Q444.7 12.5 446.5 11.75 448.3 11 449.65 9.7L449.65 9.7Q451 8.45 451.78 6.73 452.55 5 452.55 3L452.55 3 452.55-14.8 456.35-14.8 456.35-18.75 449.1-18.75Q449-18.05 448.95-17.5 448.9-16.95 448.9-16.4L448.9-16.4Q448.3-17.35 446.63-18.28 444.95-19.2 442.55-19.2L442.55-19.2Q440.45-19.2 438.6-18.4 436.75-17.6 435.4-16.25L435.4-16.25Q434.05-14.9 433.28-13.1 432.5-11.3 432.5-9.35L432.5-9.35Q432.5-7.35 433.28-5.58 434.05-3.8 435.4-2.5L435.4-2.5Q436.75-1.15 438.6-0.38 440.45 0.4 442.55 0.4L442.55 0.4Q443.9 0.4 445 0.15 446.1-0.1 446.9-0.5L446.9-0.5Q447.5-0.8 447.95-1.13 448.4-1.45 448.55-1.7L448.55-1.7Q448.45-1.4 448.43-1.05 448.4-0.7 448.4-0.6L448.4-0.6 448.4 2.35Q448.4 3.6 447.98 4.67 447.55 5.75 446.75 6.5L446.75 6.5Q445.95 7.3 444.88 7.75 443.8 8.2 442.5 8.2L442.5 8.2Q441.05 8.2 439.73 7.53 438.4 6.85 437.4 6.1L437.4 6.1ZM442.55-15.15L442.55-15.15Q443.7-15.15 444.7-14.8 445.7-14.45 446.45-13.85L446.45-13.85Q447.35-13.05 447.88-11.93 448.4-10.8 448.4-9.4L448.4-9.4Q448.4-8.2 448-7.15 447.6-6.1 446.85-5.35L446.85-5.35Q446.1-4.55 445-4.08 443.9-3.6 442.55-3.6L442.55-3.6Q441.3-3.6 440.28-4 439.25-4.4 438.45-5.1L438.45-5.1Q437.65-5.9 437.18-7 436.7-8.1 436.7-9.4L436.7-9.4Q436.7-10.55 437.05-11.55 437.4-12.55 438.1-13.3L438.1-13.3Q438.85-14.15 440-14.65 441.15-15.15 442.55-15.15ZM477-2.45L477-2.45Q478.35-3.8 479.13-5.58 479.9-7.35 479.9-9.4L479.9-9.4Q479.9-11.4 479.13-13.2 478.35-15 477-16.35L477-16.35Q475.65-17.65 473.8-18.43 471.95-19.2 469.85-19.2L469.85-19.2Q467.75-19.2 465.93-18.43 464.1-17.65 462.75-16.35L462.75-16.35Q461.4-15 460.63-13.2 459.85-11.4 459.85-9.4L459.85-9.4Q459.85-7.35 460.63-5.58 461.4-3.8 462.75-2.45L462.75-2.45Q464.1-1.1 465.93-0.33 467.75 0.45 469.85 0.45L469.85 0.45Q471.95 0.45 473.8-0.33 475.65-1.1 477-2.45ZM465.7-5.3L465.7-5.3Q464.9-6.05 464.45-7.1 464-8.15 464-9.35L464-9.35Q464-10.55 464.45-11.6 464.9-12.65 465.7-13.45L465.7-13.45Q466.45-14.25 467.5-14.7 468.55-15.15 469.75-15.15L469.75-15.15Q470.95-15.15 472-14.7 473.05-14.25 473.85-13.45L473.85-13.45Q474.65-12.65 475.1-11.6 475.55-10.55 475.55-9.35L475.55-9.35Q475.55-8.15 475.1-7.1 474.65-6.05 473.85-5.3L473.85-5.3Q473.05-4.5 472-4.05 470.95-3.6 469.75-3.6L469.75-3.6Q468.55-3.6 467.5-4.05 466.45-4.5 465.7-5.3ZM483.4 0L494.5 0 494.5-3.95 491.35-3.95 491.35-9.1Q491.35-10.65 492.02-11.9 492.7-13.15 493.9-13.95L493.9-13.95Q494.7-14.5 495.77-14.8 496.85-15.1 498.1-15.1L498.1-15.1 498.4-19.2Q497.65-19.2 496.67-18.85 495.7-18.5 494.65-17.8L494.65-17.8Q493.65-17.15 492.72-16.18 491.8-15.2 491.2-13.95L491.2-13.95Q491.1-15.15 491.12-15.05 491.15-14.95 491.05-16.15L491.05-16.15 490.85-18.75 483.9-18.75 483.9-14.8 487.2-14.8 487.2-3.95 483.4-3.95 483.4 0ZM501.9 0L513 0 513-3.95 509.55-3.95 509.55-18.75 501.9-18.75 501.9-14.8 505.4-14.8 505.4-3.95 501.9-3.95 501.9 0ZM510.1-26L510.1-26Q510.1-27.15 509.3-27.9 508.5-28.65 507.55-28.65L507.55-28.65Q506.55-28.65 505.75-27.9 504.95-27.15 504.95-26L504.95-26Q504.95-24.85 505.75-24.13 506.55-23.4 507.55-23.4L507.55-23.4Q508.5-23.4 509.3-24.13 510.1-24.85 510.1-26ZM520.69 0L528.59 0 528.59-3.95 524.84-3.95 524.84-14.7 529.74-14.7 529.74-18.75 524.84-18.75 524.84-30.95 520.69-30.95 520.69-18.75 516.49-18.75 516.49-14.7 520.69-14.7 520.69 0ZM533.24 0L544.34 0 544.34-3.95 541.19-3.95 541.19-9.1Q541.19-10.4 541.74-11.5 542.29-12.6 543.19-13.4L543.19-13.4Q544.09-14.2 545.26-14.65 546.44-15.1 547.74-15.1L547.74-15.1Q549.64-15 550.51-14.03 551.39-13.05 551.49-11.7L551.49-11.7 551.49-3.95 547.64-3.95 547.64 0 558.74 0 558.74-3.95 555.64-3.95 555.64-13.6Q555.54-16.1 553.84-17.65 552.14-19.2 549.19-19.2L549.19-19.2Q546.34-19.05 544.24-17.73 542.14-16.4 541.04-13.95L541.04-13.95 541.19-16.2 541.19-37.5 533.24-37.5 533.24-33.55 537.04-33.55 537.04-3.95 533.24-3.95 533.24 0ZM562.24 0L573.34 0 573.34-3.95 570.19-3.95 570.19-9.1Q570.19-10.4 570.74-11.5 571.29-12.6 572.19-13.4L572.19-13.4Q573.09-14.2 574.26-14.65 575.44-15.1 576.74-15.1L576.74-15.1Q578.64-15 579.51-14.03 580.39-13.05 580.49-11.7L580.49-11.7 580.49-3.95 576.69-3.95 576.69 0 587.79 0 587.79-3.95 584.64-3.95 584.64-9.1Q584.64-10.4 585.19-11.5 585.74-12.6 586.64-13.4L586.64-13.4Q587.54-14.2 588.71-14.65 589.89-15.1 591.19-15.1L591.19-15.1Q593.09-15 593.96-14.03 594.84-13.05 594.94-11.7L594.94-11.7 594.94-3.95 591.14-3.95 591.14 0 602.24 0 602.24-3.95 599.09-3.95 599.09-13.6Q598.99-16.1 597.29-17.65 595.59-19.2 592.64-19.2L592.64-19.2Q589.89-19.1 587.79-17.8 585.69-16.5 584.59-14.2L584.59-14.2Q584.29-16.45 582.61-17.82 580.94-19.2 578.19-19.2L578.19-19.2Q575.34-19.1 573.21-17.73 571.09-16.35 570.04-13.95L570.04-13.95Q569.94-15.15 569.86-16.13 569.79-17.1 569.69-18.3L569.69-18.3 569.69-18.75 562.74-18.75 562.74-14.8 566.04-14.8 566.04-3.95 562.24-3.95 562.24 0Z" opacity="1" transform="matrix(1,0,0,1,0,0)" fill="#d5b263" class="slogan-text-1" data-fill-palette-color="secondary" id="text-1"></path></svg></g></svg></g></svg></g></svg></g></svg></g></svg></g></svg></g><path d="M245.915 56.343L245.915 1.706 2.126 1.706 2.126 245.494 245.915 245.494 245.915 190.857 238.461 190.857 238.461 238.041 9.58 238.041 9.58 9.159 238.461 9.159 238.461 56.343Z" fill="#d5b263" stroke="transparent" data-fill-palette-color="tertiary"></path></svg></g><defs></defs></svg><rect width="395.52" height="247.2" fill="none" stroke="none" visibility="hidden"></rect></g></svg></g></svg>